<svg xmlns="http://www.w3.org/2000/svg" width="147" height="27" viewBox="0 0 147 27">
    <g fill="none" fill-rule="evenodd">
        <path fill="#FFF" d="M27.79 19.23l3.789 3.75 3.787-3.752a5.371 5.371 0 0 0-3.787-1.55c-1.48 0-2.82.593-3.79 1.552M24 1.25v-.001C15.866-1.515 6.48.309 0 6.719l2.526 2.498c5.795-5.732 14.339-7.129 21.473-4.19v-.002.003a19.833 19.833 0 0 1 5.069-1.337c5.832-.737 11.936 1.105 16.406 5.526L48 6.718C41.521.308 32.134-1.515 24 1.25m0 9.739a14.297 14.297 0 0 0-7.579-2.163c-3.818 0-7.406 1.471-10.105 4.141l2.526 2.499a10.71 10.71 0 0 1 7.579-3.105A10.71 10.71 0 0 1 24 15.465a10.71 10.71 0 0 1 7.579-3.105 10.71 10.71 0 0 1 7.579 3.105l2.526-2.499c-2.699-2.67-6.287-4.14-10.105-4.14-2.726 0-5.328.761-7.579 2.162m-7.579 6.69c1.479 0 2.818.592 3.787 1.55l-3.787 3.751-3.79-3.749a5.372 5.372 0 0 1 3.79-1.552"/>
        <text fill="#FFF" font-family="FuturaPT-Demi, Futura PT" font-size="24" font-weight="500" transform="translate(0 -3)">
            <tspan x="61" y="24">Wi-Fly</tspan>
        </text>
        <text fill="#FFF" font-family="FuturaPT-Demi, Futura PT" font-size="14" font-weight="500" transform="translate(0 -3)">
            <tspan x="131" y="15">by</tspan>
        </text>
    </g>
</svg>
