<svg xmlns="http://www.w3.org/2000/svg" width="55" height="34" viewBox="0 0 55 34">
    <g fill="none" fill-rule="evenodd" transform="translate(0 1)">
        <path fill="#F2F2F2" stroke="#262626" stroke-width="2" d="M46.984 13.328C51.026 14.42 54 18.113 54 22.5c0 5.079-3.986 9.227-9 9.487V32H11C5.477 32 1 27.523 1 22c0-4.24 2.639-7.864 6.364-9.318A10.01 10.01 0 0 1 7 10C7 4.477 11.477 0 17 0a9.971 9.971 0 0 1 7.227 3.089A13.941 13.941 0 0 1 33 0c7.507 0 13.634 5.908 13.984 13.328z"/>
        <circle cx="33" cy="16" r="5" fill="#F2F2F2" stroke="#262626" stroke-width="2"/>
        <path stroke="#262626" stroke-linecap="square" stroke-width="2" d="M37.5 20.5l3.28 3.28"/>
        <path fill="#262626" d="M15 11h11v2H15zM15 15h10v2H15zM15 19h11v2H15z"/>
    </g>
</svg>
