<svg xmlns="http://www.w3.org/2000/svg" width="36" height="67" viewBox="0 0 36 67">
    <g fill="none" fill-rule="evenodd" transform="translate(1 1)">
        <rect width="32" height="32" fill="#F2F2F2" stroke="#262626" stroke-width="2" rx="4"/>
        <circle cx="16" cy="16" r="8" fill="#F2F2F2" stroke="#262626" stroke-width="2"/>
        <path fill="#262626" d="M12 15h2v2h-2zM18 15h2v2h-2zM15 8h2v3h-2zM15 21h2v3h-2zM19 37a1 1 0 0 1 1 1v5h-2v-5a1 1 0 0 1 1-1zM13 37a1 1 0 0 1 1 1v5h-2v-5a1 1 0 0 1 1-1z"/>
        <path fill="#F2F2F2" stroke="#262626" stroke-width="2" d="M18 51a3 3 0 0 0 3-3v-4H11v4a3 3 0 0 0 3 3v4h4v-4z"/>
        <path stroke="#262626" stroke-width="2" d="M16 56a9 9 0 0 0 18 0"/>
    </g>
</svg>
