<svg xmlns="http://www.w3.org/2000/svg" width="55" height="34" viewBox="0 0 55 34">
    <g fill="none" fill-rule="evenodd">
        <path fill="#F2F2F2" stroke="#262626" stroke-width="2" d="M46.984 14.328C51.026 15.42 54 19.113 54 23.5c0 5.079-3.986 9.227-9 9.487V33H11C5.477 33 1 28.523 1 23c0-4.24 2.639-7.864 6.364-9.318A10.01 10.01 0 0 1 7 11C7 5.477 11.477 1 17 1a9.971 9.971 0 0 1 7.227 3.089A13.941 13.941 0 0 1 33 1c7.507 0 13.634 5.908 13.984 13.328z"/>
        <path fill="#262626" d="M27 9h2v11h-2z"/>
        <path stroke="#262626" stroke-width="2" d="M33 16l-5 5-5-5M36 21v4H20v-4"/>
    </g>
</svg>
