<svg xmlns="http://www.w3.org/2000/svg" width="180" height="21" viewBox="0 0 180 21">
    <g fill="#FFF" fill-rule="evenodd" opacity=".3">
        <text font-family="FuturaPT-Medium, Futura PT" font-size="12" font-weight="400" transform="translate(-1)">
            <tspan x=".666" y="18">Made by</tspan>
        </text>
        <path d="M51 18.003h8.001v2H51zM51 12.002h8.001v2H51zM51 6.001h8.001v2H51zM59.002 14.002h2v4.001h-2zM49 8.001h2v4.001h-2zM49 16.003h2v2h-2zM59.002 8.001h2v2h-2zM65.003 18.003h8.001v2h-8.001zM77.005 6.001h10.002v2H77.005zM81.005 2h2v4.001h-2zM95.007 18.003h4.001v2h-4.001zM83.005 0h4.001v2h-4.001zM65.003 6.001h8.001v2h-8.001zM73.004 8.001h2v10.002h-2z"/>
        <path d="M81.005 8.001h2v12.002h-2zM89.006 6.001h10.002v2H89.006zM93.007 2h2v4.001h-2z"/>
        <path d="M93.007 8.001h2v10.002h-2zM63.002 8.001h2v10.002h-2zM101.008 6.001v14.002h2c-.094-5.61-.088-8.619.02-9.028.161-.613.408-1.28.74-1.734a3.437 3.437 0 0 1 1.293-1.066c.53-.258 1.154-.507 1.872-.507.538 0 .996.142 1.373.32.377.178.678.422.903.733.224.312.386.876.484 1.294.066.279.06 3.608-.017 9.988h2c-.077-5.675-.077-8.71 0-9.108a4.73 4.73 0 0 1 .643-1.587 3.202 3.202 0 0 1 1.158-1.107c.485-.275 1.096-.533 1.832-.533 1.22 0 2.074.418 2.559 1.013.484.596.477 1.463.477 2.6v8.722h2v-9.335c0-3.218-1.589-4.827-4.659-4.827-.916 0-1.778.222-2.586.667-.808.444-1.418 1.12-1.831 2.027-.251-.907-.75-1.583-1.495-2.027-.745-.445-1.575-.667-2.491-.667-1.131 0-2.06.24-2.788.72-.727.48-1.037 1.147-1.486 2v-2.56h-2zm22.027 4.667c.053-.8.455-1.74.74-2.327.284-.586 1.544-1.954 2.904-2.233 1.36-.28 1.427-.267 2.227-.267.605 0 .793-.017 1.814.173 1.02.19 3.627 1.59 3.627 4.974v6.588c0 .676-.044 1.014.614 1.014a1.3 1.3 0 0 0 .533-.107v1.414a5.063 5.063 0 0 1-1.094.107c-.426 0-.769-.059-1.026-.174a1.378 1.378 0 0 1-.6-.494 1.851 1.851 0 0 1-.28-.76 6.526 6.526 0 0 1-.067-.973h-.054c-.302.444-.549.84-.86 1.187-.31.346-.618.635-1 .867a4.98 4.98 0 0 1-1.333.533c-.49.124.646.08-1.767.08-1.131 0-2.333-.37-3.174-1.04-.936-.747-1.495-1.724-1.495-2.917 0-.96.215-1.648.641-2.19.427-.543.925-.891 1.627-1.176.703-.284 1.52-.482 2.4-.597.88-.116 4.103-.545 4.393-.69.29-.144.344-.227.442-.458.098-.231.1-.747.1-1.12 0-1.593-1.877-2.614-3.534-2.614-1.067 0-1.827.18-2.467.7-.64.52-1.298 1.38-1.334 2.5h-1.977zm9.312 2.2c0-.012-.018-.012-.052 0-.103.177-.197.277-.529.458-.331.18-1.902.37-2.97.496-1.07.126-1.422.156-2.024.332-.6.176-2 .634-2 2.095 0 .472.273 1.291.91 1.84.636.549 1.727.55 2.105.55 1.243 0 3.175-1.16 4.235-2.929.249-.48.325-.792.325-1.401.016-.493.016-.973 0-1.44zm12.869-2.866h2.04c-.036-.747-.187-1.13-.454-1.68a4.063 4.063 0 0 0-1.08-1.388 4.445 4.445 0 0 0-1.573-.826 6.732 6.732 0 0 0-1.934-.267c-.605 0-1.213.071-1.827.213a5.644 5.644 0 0 0-1.667.667 3.642 3.642 0 0 0-1.213 1.2c-.312.498-.467 1.094-.467 1.787 0 .587.098 1.08.293 1.48.196.4 1.305 1.49 1.876 1.759.38.18 1.51.51 3.388.99.553.095 1.817.47 2.463.82.646.35.875 1.052.875 1.619 0 1.084-1.83 2.308-3.721 2.308-1.12 0-1.662-.05-2.418-.628-.587-.427-.982-1.18-1.076-2.053h-2.16c.142 1.689.715 2.462 1.72 3.227 1.005.764 2.316 1.147 3.934 1.147 2.165 0 3.196-.592 3.72-.92a4.135 4.135 0 0 0 1.294-1.28c.338-.525.507-1.16.507-1.908 0-.604-.035-.976-.347-1.573-.311-.598-1.247-1.534-2.147-1.854-.6-.213-1.681-.492-3.245-.837-.592-.12-1.503-.33-2.132-.73-.63-.398-.917-1.158-.917-1.647 0-.488.328-1.059.782-1.427.455-.367 1.68-.68 2.485-.68.805 0 1.451.152 2.058.587.606.435.925 1.378.943 1.894zm7.8-4.001v-4h-2v4h-2.667v2h2.667v8.268c-.017 1.174.354 2.496.8 2.934.448.438 1.414.8 2.534.8h1.334v-2h-1.494c-.53-.115-.847-.276-.948-.484-.15-.311-.225-.699-.225-1.25V8.001h2.667v-2h-2.667zm14.603 6c0-.42 0-.97-.25-1.626-.45-1.187-1.523-2.05-2.039-2.307-.516-.257-1.1-.4-1.754-.4-.671 0-.908-.045-1.78.333-.873.378-1.756 1.537-2.011 2.374-.256.837-.232 1.046-.3 1.627h8.134zm-8.268 2.001c0 .605.322 2.339 1 3.2.678.863 1.733 1.468 3.334 1.468 1.227 0 2.29-.346 2.834-1 .418-.503.636-.994.833-1.667.513 0 1.483-.002 2.152 0-.4 1.274-1.073 2.365-1.885 3.093-.951.854-2.298 1.28-4.04 1.28-1.085 0-2.023-.224-2.814-.607a5.175 5.175 0 0 1-1.934-1.571 6.685 6.685 0 0 1-1.107-2.289c-.24-.88-.36-1.809-.36-2.787 0-.907.12-1.796.36-2.667.24-.871.61-1.65 1.107-2.334a5.558 5.558 0 0 1 1.934-1.653c.79-.418 1.729-.627 2.813-.627 1.103 0 2.045.222 2.828.667a5.63 5.63 0 0 1 1.907 1.747c.489.72.84 1.547 1.053 2.48.213.934.356 2.307.32 3.267h-10.335zm12.335-8.001v14.002h2v-6.668c0-.729.008-1.115.257-1.729.249-.613 1.097-1.922 1.945-2.738.758-.73 1.936-.922 3.133-.867V6.054c-1.245-.053-2.636.223-3.534.827-.898.605-1.373 1.167-1.8 2.287V6.001h-2z"/>
    </g>
</svg>
