<svg xmlns="http://www.w3.org/2000/svg" width="16" height="16" viewBox="0 0 16 16">
    <g fill="none" fill-rule="evenodd">
        <rect width="16" height="16" fill="#39F" rx="8"/>
        <path fill="#FFF" fill-rule="nonzero" d="M8.692 10.292H7.308v-.8c0-.751.355-1.416.935-2.004a5.21 5.21 0 0 1 .515-.455c.1-.078.303-.225.286-.212a1.4 1.4 0 0 0 .571-1.113c0-.805-.723-1.458-1.615-1.458s-1.615.653-1.615 1.458H5C5 4.213 6.343 3 8 3s3 1.213 3 2.708c0 .806-.393 1.556-1.06 2.067-.003.001-.2.144-.278.205a3.9 3.9 0 0 0-.385.34c-.374.379-.585.773-.585 1.172v.8zM8 13c-.51 0-.923-.373-.923-.833 0-.46.413-.834.923-.834s.923.373.923.834c0 .46-.413.833-.923.833z"/>
    </g>
</svg>
