<svg xmlns="http://www.w3.org/2000/svg" width="40" height="40" viewBox="0 0 40 40">
    <g fill="none" fill-rule="evenodd">
        <rect width="40" height="40" fill="#00B32C" rx="20"/>
        <path stroke="#FFF" stroke-width="2" d="M14.707 11.707l2.297 2.297a1 1 0 0 1 .199 1.131l-.288.615c-.351.75-.194 1.64.392 2.225l4.718 4.711a1.973 1.973 0 0 0 2.225.394l.616-.286a1 1 0 0 1 1.128.2l2.299 2.299a1 1 0 0 1 0 1.414L28 27c-3 3-7.044 1.963-12.022-3.019C11 19 10 15 13 12l.293-.293a1 1 0 0 1 1.414 0z"/>
    </g>
</svg>
