<svg xmlns="http://www.w3.org/2000/svg" width="70" height="46" viewBox="0 0 70 46">
    <g fill="none" fill-rule="evenodd">
        <path fill="#F2F2F2" stroke="#262626" stroke-width="2" d="M61 25h4a4 4 0 0 0 4-4V5a4 4 0 0 0-4-4H35a4 4 0 0 0-4 4v16a4 4 0 0 0 4 4h18l8 8v-8z"/>
        <path fill="#F2F2F2" stroke="#262626" stroke-width="2" d="M10 35H5a4 4 0 0 1-4-4V15a4 4 0 0 1 4-4h30a4 4 0 0 1 4 4v16a4 4 0 0 1-4 4H18l-8 8v-8z"/>
        <path fill="#262626" fill-rule="nonzero" d="M50.43 15.75h-1.66v-.96c0-.901.425-1.699 1.121-2.404.196-.198.401-.377.619-.546.12-.094.364-.27.343-.254.432-.332.685-.814.685-1.336 0-.966-.867-1.75-1.938-1.75-1.07 0-1.938.784-1.938 1.75H46C46 8.455 47.612 7 49.6 7s3.6 1.455 3.6 3.25c0 .967-.472 1.866-1.273 2.48-.002.002-.239.173-.333.246a4.68 4.68 0 0 0-.462.408c-.449.455-.701.927-.701 1.407v.96zM49.6 19c-.612 0-1.108-.448-1.108-1s.496-1 1.108-1c.612 0 1.108.448 1.108 1s-.496 1-1.108 1z"/>
        <g transform="translate(12 15)">
            <circle cx="9" cy="8" r="2" fill="#D8D8D8" stroke="#979797"/>
            <g fill="#262626">
                <path d="M9.372 2.074l1.848.765-4.592 11.087-1.848-.765z"/>
                <path d="M4.78 2.84l1.848-.766 4.592 11.087-1.848.765z"/>
                <path d="M13.926 9.372l-.765 1.848L2.074 6.628l.765-1.848z"/>
                <path d="M13.16 4.78l.766 1.848L2.839 11.22l-.765-1.848z"/>
            </g>
            <circle cx="8" cy="8" r="4.75" fill="#262626"/>
            <circle cx="8" cy="8" r="3" fill="#F2F2F2"/>
        </g>
    </g>
</svg>
