<svg xmlns="http://www.w3.org/2000/svg" width="64" height="31" viewBox="0 0 64 31">
    <path fill="#FFF" fill-rule="evenodd" d="M37.053 25.92l5.052 5.052 5.05-5.055a7.123 7.123 0 0 0-5.05-2.09c-1.973 0-3.76.8-5.052 2.092M32 1.684C21.154-2.043 8.637.415 0 9.053l3.368 3.369c7.727-7.726 19.118-9.608 28.63-5.647L32 6.773v.004a26.218 26.218 0 0 1 6.758-1.802c7.776-.994 15.915 1.49 21.875 7.448L64 9.055C55.361.415 42.845-2.042 32 1.684m0 13.125a18.912 18.912 0 0 0-10.105-2.914c-5.09 0-9.875 1.982-13.474 5.581l3.368 3.368a14.2 14.2 0 0 1 10.106-4.185A14.2 14.2 0 0 1 32 20.844a14.2 14.2 0 0 1 10.105-4.185 14.2 14.2 0 0 1 10.106 4.185l3.368-3.368a18.927 18.927 0 0 0-13.474-5.581A18.912 18.912 0 0 0 32 14.809m-10.105 9.017c1.971 0 3.756.8 5.05 2.09l-5.05 5.056-5.053-5.053a7.123 7.123 0 0 1 5.053-2.093"/>
</svg>
