<?xml version="1.0" standalone="no"?>
<!DOCTYPE svg PUBLIC "-//W3C//DTD SVG 20010904//EN"
 "http://www.w3.org/TR/2001/REC-SVG-20010904/DTD/svg10.dtd">
<svg version="1.0" xmlns="http://www.w3.org/2000/svg"
 width="192.000000pt" height="192.000000pt" viewBox="0 0 192.000000 192.000000"
 preserveAspectRatio="xMidYMid meet">
<metadata>
Created by potrace 1.11, written by Peter Selinger 2001-2013
</metadata>
<g transform="translate(0.000000,192.000000) scale(0.100000,-0.100000)"
fill="#000000" stroke="none">
<path d="M549 1416 c-2 -2 -22 -6 -44 -10 -161 -23 -379 -129 -477 -233 l-27
-28 48 -48 49 -49 62 51 c196 158 460 215 695 150 99 -27 111 -27 210 0 236
65 498 8 695 -151 l63 -50 43 43 c39 39 57 79 37 79 -5 0 -28 18 -52 39 -98
85 -254 160 -402 191 -74 16 -120 19 -214 15 -127 -4 -137 -5 -221 -30 -49
-14 -59 -14 -108 0 -29 9 -68 18 -87 21 -41 7 -264 15 -270 10z"/>
<path d="M595 1059 c-105 -12 -194 -46 -275 -107 -76 -57 -75 -52 -19 -106
l51 -49 26 22 c34 27 118 71 157 83 128 38 296 5 389 -77 16 -14 31 -25 34
-25 2 0 26 16 52 35 80 59 130 76 237 80 104 5 196 -23 281 -87 l43 -32 44 44
c24 25 44 49 45 54 0 15 -64 65 -130 100 -57 30 -107 48 -175 62 -27 6 -154 5
-185 -1 -14 -2 -38 -8 -55 -11 -16 -3 -58 -20 -93 -37 l-64 -30 -36 20 c-88
49 -220 73 -327 62z"/>
<path d="M613 700 c-36 -8 -95 -40 -100 -55 -2 -6 30 -43 70 -83 l72 -72 75
75 c72 73 73 75 56 94 -30 33 -115 53 -173 41z"/>
<path d="M1209 696 c-25 -7 -58 -21 -72 -32 l-26 -21 77 -76 77 -76 74 73 c43
43 71 78 67 85 -11 17 -77 47 -116 53 -19 3 -56 0 -81 -6z"/>
</g>
</svg>
